<svg width="189" height="58" viewBox="0 0 189 58" fill="none" xmlns="http://www.w3.org/2000/svg">
<path d="M27.9024 7.4C28.5104 7.752 28.9584 8.248 29.2464 8.888C29.5664 9.496 29.7264 10.168 29.7264 10.904C29.7264 11.544 29.5984 12.184 29.3424 12.824C29.0864 13.464 28.7504 13.992 28.3344 14.408C27.8544 14.376 27.1344 14.36 26.1744 14.36C25.5664 14.36 24.4624 14.392 22.8624 14.456L20.3184 14.504C20.4784 13.576 20.0944 15.736 19.1664 20.984L18.2064 26.456C17.8864 28.344 17.5504 30.824 17.1984 33.896C16.8784 36.52 16.5904 38.36 16.3344 39.416C16.1104 40.472 15.7424 41 15.2304 41C14.4944 41 13.6144 40.744 12.5904 40.232C11.5984 39.688 10.7184 39.048 9.95044 38.312C9.21444 37.576 8.84644 36.968 8.84644 36.488C8.81444 35.752 9.19844 33.576 9.99844 29.96C10.6064 26.92 11.0384 24.664 11.2944 23.192C11.2944 23.256 11.5504 21.928 12.0624 19.208C12.5104 16.776 12.7824 15.288 12.8784 14.744L5.39044 15.656C4.78244 15.336 4.28644 14.872 3.90244 14.264C3.55044 13.624 3.37444 12.936 3.37444 12.2C3.37444 10.92 3.87044 9.784 4.86244 8.792C6.68644 8.536 8.95844 8.376 11.6784 8.312C14.4304 8.216 16.0624 8.152 16.5744 8.12C19.9344 8.024 22.3824 7.944 23.9184 7.88C25.4864 7.784 26.8144 7.624 27.9024 7.4ZM50.1703 41.288C47.8983 39.976 45.8823 38.344 44.1223 36.392C42.3623 34.44 40.9383 32.216 39.8503 29.72L39.6583 31.736C39.3383 34.84 39.0183 37.16 38.6983 38.696C38.4103 40.232 37.9943 41 37.4503 41C36.7143 41 35.8343 40.728 34.8103 40.184C33.8183 39.64 32.9383 39 32.1703 38.264C31.4343 37.528 31.0663 36.92 31.0663 36.44C31.0663 35.608 31.8503 31.368 33.4183 23.72C33.6103 22.824 33.9143 21.304 34.3303 19.16C34.7783 16.984 35.0823 15.416 35.2423 14.456L33.4663 14.744C32.4743 13.816 31.9783 12.648 31.9783 11.24C31.9783 10.248 32.2503 9.224 32.7943 8.168C35.3863 7.496 38.0103 7.16 40.6663 7.16C43.4823 7.16 46.0903 7.528 48.4903 8.264C50.9223 9 52.8903 10.136 54.3943 11.672C55.8983 13.176 56.6503 15.064 56.6503 17.336C56.6503 19.992 55.6103 22.28 53.5303 24.2C51.4503 26.088 48.3943 27.352 44.3623 27.992C45.9623 29.496 47.5623 30.712 49.1623 31.64C50.7943 32.536 52.8423 33.4 55.3063 34.232C55.4343 34.744 55.4983 35.304 55.4983 35.912C55.4983 37.384 55.0503 38.6 54.1543 39.56C53.2583 40.52 51.9303 41.096 50.1703 41.288ZM40.7623 23.336C43.2903 23.08 45.3543 22.408 46.9543 21.32C48.5863 20.232 49.4023 18.936 49.4023 17.432C49.4023 16.472 48.9223 15.672 47.9623 15.032C47.0343 14.36 45.7703 14.024 44.1703 14.024C43.5943 14.024 42.9703 14.072 42.2983 14.168C41.7863 17.112 41.5463 18.52 41.5783 18.392C41.2903 19.96 41.0183 21.608 40.7623 23.336ZM82.0423 29.048C82.0743 29.56 82.1863 30.856 82.3783 32.936C82.6023 34.984 82.7143 36.696 82.7143 38.072C82.7143 39.864 82.5063 40.824 82.0903 40.952C81.9623 40.984 81.7543 41 81.4663 41C80.7623 41 79.8823 40.84 78.8263 40.52C77.8023 40.168 76.8743 39.736 76.0423 39.224C75.2423 38.712 74.7783 38.216 74.6503 37.736C74.5223 37.256 74.4583 35.24 74.4583 31.688C71.0023 32.104 68.7303 32.36 67.6423 32.456C66.7783 34.984 65.7863 37.752 64.6663 40.76C63.8023 40.952 63.0023 41.048 62.2663 41.048C60.9863 41.048 59.8983 40.744 59.0023 40.136C58.1383 39.496 57.5623 38.536 57.2743 37.256L58.2343 35.096C61.7543 27.256 64.7943 20.68 67.3543 15.368C69.9463 10.056 71.6263 7.4 72.3943 7.4C73.0023 7.4 73.8823 7.624 75.0343 8.072C76.2183 8.52 77.2743 9.064 78.2023 9.704C79.1623 10.344 79.7063 10.92 79.8343 11.432C80.0583 12.328 80.3623 14.2 80.7463 17.048C81.1303 19.896 81.4343 22.648 81.6583 25.304L82.0423 29.048ZM74.3143 14.888C72.9063 18.216 71.5143 21.784 70.1383 25.592C71.6103 25.496 73.0663 25.352 74.5063 25.16C74.5063 20.744 74.4423 17.32 74.3143 14.888ZM95.4891 41C94.8811 41 94.0011 40.744 92.8491 40.232C91.6971 39.688 90.6251 39.064 89.6331 38.36C88.6731 37.624 88.1291 37 88.0011 36.488C87.8411 35.784 87.5531 32.84 87.1371 27.656C87.0091 25.576 86.8971 24.056 86.8011 23.096C86.7371 22.264 86.6731 21.64 86.6091 21.224C86.1931 16.936 85.9851 13.832 85.9851 11.912C85.9851 9.768 86.2251 8.632 86.7051 8.504C86.8331 8.472 87.0411 8.456 87.3291 8.456C88.0331 8.456 88.8971 8.632 89.9211 8.984C90.9771 9.304 91.9051 9.72 92.7051 10.232C93.5051 10.744 93.9691 11.24 94.0971 11.72C94.1611 11.912 94.1931 12.632 94.1931 13.88C94.1931 15.64 94.1451 17.8 94.0491 20.36C93.9211 24.52 93.8571 27.736 93.8571 30.008V31.736C96.5771 25.784 99.6171 17.8 102.977 7.784C103.937 7.464 104.913 7.304 105.905 7.304C107.217 7.304 108.321 7.656 109.217 8.36C110.145 9.064 110.753 10.136 111.041 11.576C102.049 31.192 96.8651 41 95.4891 41ZM134.569 7.4C135.177 7.752 135.625 8.248 135.913 8.888C136.233 9.496 136.393 10.168 136.393 10.904C136.393 11.544 136.265 12.184 136.009 12.824C135.753 13.464 135.417 13.992 135.001 14.408C130.873 14.472 127.433 14.632 124.681 14.888C124.137 16.84 123.625 19.016 123.145 21.416C126.345 21.16 129.049 20.776 131.257 20.264C131.897 20.648 132.377 21.16 132.697 21.8C133.049 22.408 133.225 23.08 133.225 23.816C133.225 24.488 133.081 25.128 132.793 25.736C132.537 26.312 132.169 26.776 131.689 27.128C131.081 27.192 130.489 27.24 129.913 27.272C129.337 27.304 128.777 27.336 128.233 27.368L122.041 27.8L121.177 32.12L120.697 34.424C122.649 34.232 124.409 33.976 125.977 33.656C127.577 33.304 129.257 32.824 131.017 32.216C131.913 32.632 132.601 33.224 133.081 33.992C133.593 34.728 133.849 35.544 133.849 36.44C133.849 37.72 133.353 38.856 132.361 39.848C130.377 40.232 128.153 40.52 125.689 40.712C123.225 40.904 120.937 41 118.825 41C118.249 41 117.497 40.712 116.569 40.136C115.641 39.56 114.809 38.888 114.073 38.12C113.369 37.352 113.017 36.696 113.017 36.152C113.017 35.672 113.385 33.816 114.121 30.584C114.665 28.216 115.193 25.752 115.705 23.192C116.057 21.432 116.233 20.552 116.233 20.552C116.745 18.056 117.081 16.248 117.241 15.128L115.225 15.272C114.617 14.952 114.121 14.488 113.737 13.88C113.385 13.24 113.209 12.552 113.209 11.816C113.209 10.536 113.705 9.4 114.697 8.408C119.081 8.344 122.889 8.248 126.121 8.12C129.385 7.992 132.201 7.752 134.569 7.4ZM155.917 32.024C156.813 32.44 157.501 33.032 157.981 33.8C158.493 34.568 158.749 35.4 158.749 36.296C158.749 37.608 158.253 38.76 157.261 39.752C155.277 40.168 153.149 40.488 150.877 40.712C148.605 40.936 146.557 41.048 144.733 41.048C143.965 41.048 143.405 41.032 143.053 41C142.477 40.968 141.725 40.664 140.797 40.088C139.901 39.512 139.101 38.856 138.397 38.12C137.693 37.352 137.341 36.696 137.341 36.152C137.341 35.576 137.693 33.768 138.397 30.728C139.069 27.88 139.693 24.888 140.269 21.752L140.653 19.64C141.293 16.024 141.885 13.08 142.429 10.808C143.005 8.536 143.581 7.4 144.157 7.4C144.765 7.4 145.581 7.672 146.605 8.216C147.629 8.76 148.525 9.4 149.293 10.136C150.093 10.872 150.493 11.512 150.493 12.056C150.493 12.376 150.317 13.16 149.965 14.408C149.645 15.624 149.453 16.376 149.389 16.664C148.333 20.408 147.501 23.672 146.893 26.456C146.477 28.44 145.853 31.096 145.021 34.424C148.765 34.04 152.397 33.24 155.917 32.024ZM178.165 41C177.621 41 177.045 40.712 176.437 40.136C175.861 39.528 175.365 38.808 174.949 37.976C174.565 37.144 174.373 36.408 174.373 35.768C174.373 35.224 174.741 34.648 175.477 34.04C176.245 33.432 177.157 32.92 178.213 32.504C179.269 32.088 180.213 31.88 181.045 31.88C181.589 31.88 182.133 32.168 182.677 32.744C183.221 33.288 183.653 33.96 183.973 34.76C184.325 35.528 184.501 36.184 184.501 36.728C184.501 37.304 184.117 37.928 183.349 38.6C182.613 39.272 181.733 39.848 180.709 40.328C179.717 40.776 178.869 41 178.165 41Z" fill="white"/>
<path d="M0.398438 45.8H188.581V48.2H0.398438V45.8Z" fill="white"/>
</svg>
